<svg width="32" height="14" viewBox="0 0 32 14" fill="none" xmlns="http://www.w3.org/2000/svg">
<path d="M5.84696 2.1246C5.47196 2.56835 4.87183 2.91848 4.27177 2.86842C4.19677 2.26842 4.49052 1.63079 4.83433 1.23698C5.20933 0.780727 5.86571 0.455664 6.39702 0.430664C6.45952 1.05573 6.21571 1.66829 5.84696 2.1246ZM6.39083 2.98723C5.52196 2.93723 4.77814 3.48098 4.36558 3.48098C3.94683 3.48098 3.31545 3.01223 2.62789 3.02473C1.73408 3.03723 0.902701 3.54348 0.446388 4.34986C-0.491238 5.96255 0.202638 8.35036 1.10895 9.66299C1.55276 10.3131 2.08408 11.0256 2.78414 11.0006C3.44677 10.9756 3.70927 10.5694 4.50939 10.5694C5.31571 10.5694 5.54702 11.0006 6.24708 10.9881C6.97215 10.9756 7.42846 10.3381 7.87227 9.68799C8.37853 8.95043 8.58484 8.23155 8.59734 8.19405C8.58484 8.18155 7.19721 7.6503 7.18471 6.05005C7.17221 4.71242 8.27859 4.07486 8.32859 4.03736C7.70346 3.11223 6.7284 3.01223 6.39083 2.98723ZM11.4102 1.17448V10.9194H12.9228V7.5878H15.0168C16.9295 7.5878 18.2735 6.27517 18.2735 4.37492C18.2735 2.47473 16.9545 1.17454 15.0668 1.17454L11.4102 1.17448ZM12.9228 2.44967H14.6668C15.9795 2.44967 16.7295 3.14973 16.7295 4.38111C16.7295 5.61248 15.9795 6.31886 14.6605 6.31886H12.9228V2.44967ZM21.0362 10.9944C21.9864 10.9944 22.8677 10.5131 23.2677 9.75049H23.299V10.9194H24.6992V6.0688C24.6992 4.66242 23.574 3.75604 21.8425 3.75604C20.2361 3.75604 19.0485 4.67492 19.0047 5.93755H20.3674C20.4799 5.33748 21.0362 4.94367 21.7988 4.94367C22.7239 4.94367 23.2427 5.37498 23.2427 6.16886V6.70636L21.355 6.81886C19.5985 6.92511 18.6485 7.64399 18.6485 8.89418C18.6485 10.1568 19.6298 10.9944 21.0362 10.9944ZM21.4425 9.83799C20.6362 9.83799 20.1236 9.45049 20.1236 8.85662C20.1236 8.24411 20.6174 7.8878 21.5613 7.83155L23.2427 7.7253V8.2753C23.2427 9.18793 22.4677 9.83799 21.4425 9.83799M26.5682 13.5697C28.0434 13.5697 28.7372 13.0072 29.3435 11.3007L32 3.84979H30.4623L28.6809 9.60668H28.6496L26.8682 3.84979H25.2867L27.8495 10.9444L27.712 11.3757C27.4807 12.107 27.1057 12.3883 26.4369 12.3883C26.3181 12.3883 26.0869 12.3758 25.9931 12.3633V13.5322C26.0806 13.5572 26.4556 13.5697 26.5681 13.5697" fill="black"/>
</svg>
