<svg width="16" height="16" viewBox="0 0 16 16" fill="none" xmlns="http://www.w3.org/2000/svg">
<path d="M8.23705 12.7317L8.16273 12.8132L8.08097 12.7317C4.55065 9.22046 2.21692 6.89863 2.21692 4.54421C2.21692 2.91485 3.33176 1.69283 4.81821 1.69283C5.96278 1.69283 7.07762 2.50751 7.47153 3.61547H8.85393C9.24784 2.50751 10.3627 1.69283 11.5072 1.69283C12.9937 1.69283 14.1085 2.91485 14.1085 4.54421C14.1085 6.89863 11.7748 9.22046 8.23705 12.7317ZM11.5072 0.0634766C10.214 0.0634766 8.97284 0.723366 8.16273 1.75801C7.35261 0.723366 6.11142 0.0634766 4.81821 0.0634766C2.52908 0.0634766 0.730469 2.02685 0.730469 4.54421C0.730469 7.61554 3.25744 10.1329 7.08505 13.9374L8.16273 15.0128L9.24041 13.9374C13.068 10.1329 15.595 7.61554 15.595 4.54421C15.595 2.02685 13.7964 0.0634766 11.5072 0.0634766Z" fill="black"/>
</svg>
