<svg width="24" height="24" viewBox="0 0 24 24" fill="none" xmlns="http://www.w3.org/2000/svg">
<g clip-path="url(#clip0_529_2550)">
<path fill-rule="evenodd" clip-rule="evenodd" d="M18.75 8.99974C18.7531 10.4461 18.2885 11.8546 17.4255 13.0152L12 20.2497L6.5745 13.0152C5.93926 12.157 5.51668 11.1603 5.34148 10.107C5.16629 9.05373 5.24346 7.97391 5.56667 6.95624C5.88988 5.93858 6.44991 5.0121 7.20075 4.25293C7.95159 3.49375 8.87182 2.92353 9.88585 2.5891C10.8999 2.25467 11.9788 2.16557 13.0339 2.32913C14.0891 2.49268 15.0904 2.90423 15.9556 3.52995C16.8208 4.15568 17.5252 4.97773 18.011 5.92859C18.4968 6.87945 18.75 7.93199 18.75 8.99974ZM21 8.99974C21 11.0097 20.3415 12.8637 19.23 14.3607L13.4055 22.1247L12 23.9997L10.593 22.1247L4.77 14.3607C3.92203 13.2169 3.35756 11.8881 3.12298 10.4837C2.8884 9.07927 2.99039 7.63921 3.42058 6.28186C3.85078 4.92451 4.59689 3.68859 5.59762 2.67567C6.59835 1.66275 7.82514 0.901719 9.17718 0.455119C10.5292 0.00851987 11.9679 -0.110907 13.3751 0.106651C14.7823 0.324209 16.1178 0.872543 17.2718 1.7066C18.4259 2.54066 19.3655 3.63663 20.0137 4.90448C20.6618 6.17232 20.9998 7.57585 21 8.99974ZM12 11.9997C12.7957 11.9997 13.5587 11.6837 14.1213 11.1211C14.6839 10.5585 15 9.79539 15 8.99974C15 8.20409 14.6839 7.44103 14.1213 6.87842C13.5587 6.31581 12.7957 5.99974 12 5.99974C11.2044 5.99974 10.4413 6.31581 9.87868 6.87842C9.31607 7.44103 9 8.20409 9 8.99974C9 9.79539 9.31607 10.5585 9.87868 11.1211C10.4413 11.6837 11.2044 11.9997 12 11.9997Z" fill="black"/>
</g>
<defs>
<clipPath id="clip0_529_2550">
<rect width="24" height="24" fill="white"/>
</clipPath>
</defs>
</svg>
