<svg width="32" height="20" viewBox="0 0 32 20" fill="none" xmlns="http://www.w3.org/2000/svg">
<path d="M4.36274 19.2352V18.0004C4.36274 17.527 4.07455 17.2184 3.58059 17.2184C3.33365 17.2184 3.06609 17.3007 2.88084 17.5682C2.73684 17.3418 2.53105 17.2184 2.22234 17.2184C2.01646 17.2184 1.81077 17.28 1.64605 17.5064V17.2595H1.21387V19.2352H1.64605V18.1444C1.64605 17.7946 1.8313 17.6299 2.11949 17.6299C2.40749 17.6299 2.55168 17.8152 2.55168 18.1444V19.2352H2.98387V18.1444C2.98387 17.7946 3.18955 17.6299 3.45712 17.6299C3.7453 17.6299 3.8893 17.8152 3.8893 18.1444V19.2352H4.36274ZM10.7631 17.2595H10.0635V16.6627H9.6313V17.2595H9.24027V17.6504H9.63121V18.5561C9.63121 19.0089 9.81646 19.2764 10.3104 19.2764C10.4957 19.2764 10.7014 19.2147 10.8456 19.1324L10.722 18.7619C10.5985 18.8442 10.4545 18.8648 10.3516 18.8648C10.1458 18.8648 10.0635 18.7413 10.0635 18.5354V17.6504H10.7631V17.2595ZM14.4265 17.2183C14.1796 17.2183 14.015 17.3418 13.912 17.5064V17.2595H13.4798V19.2352H13.912V18.1239C13.912 17.7946 14.056 17.6094 14.3236 17.6094C14.4059 17.6094 14.5088 17.63 14.5911 17.6505L14.7146 17.239C14.6323 17.2184 14.5088 17.2184 14.4265 17.2184M8.8904 17.4242C8.68452 17.2801 8.39643 17.2184 8.08771 17.2184C7.59384 17.2184 7.26459 17.4654 7.26459 17.8564C7.26459 18.1858 7.51152 18.3709 7.94371 18.4327L8.14949 18.4533C8.3759 18.4944 8.49937 18.5562 8.49937 18.6591C8.49937 18.8031 8.33474 18.906 8.04656 18.906C7.75837 18.906 7.53205 18.8031 7.38796 18.7003L7.18218 19.0295C7.40859 19.1941 7.7173 19.2764 8.02593 19.2764C8.60221 19.2764 8.93156 19.009 8.93156 18.6385C8.93156 18.2886 8.66399 18.1034 8.25234 18.0417L8.04656 18.021C7.86131 18.0004 7.7173 17.9594 7.7173 17.8359C7.7173 17.6918 7.8613 17.6095 8.08771 17.6095C8.33474 17.6095 8.58168 17.7123 8.70515 17.7741L8.8904 17.4242ZM20.3743 17.2184C20.1273 17.2184 19.9626 17.3419 19.8597 17.5065V17.2596H19.4275V19.2353H19.8597V18.124C19.8597 17.7947 20.0038 17.6095 20.2713 17.6095C20.3537 17.6095 20.4566 17.6301 20.5389 17.6506L20.6624 17.2391C20.5801 17.2184 20.4566 17.2184 20.3743 17.2184ZM14.8587 18.2474C14.8587 18.8443 15.2703 19.2764 15.9083 19.2764C16.1964 19.2764 16.4022 19.2148 16.608 19.0501L16.4022 18.7003C16.2376 18.8237 16.073 18.8854 15.8877 18.8854C15.5378 18.8854 15.2909 18.6385 15.2909 18.2474C15.2909 17.877 15.5378 17.63 15.8877 17.6095C16.073 17.6095 16.2376 17.6712 16.4022 17.7947L16.608 17.4449C16.4022 17.2801 16.1964 17.2184 15.9083 17.2184C15.2703 17.2184 14.8587 17.6506 14.8587 18.2474ZM18.8513 18.2474V17.2596H18.4191V17.5065C18.2751 17.3214 18.0693 17.2184 17.8017 17.2184C17.2461 17.2184 16.8139 17.6506 16.8139 18.2474C16.8139 18.8443 17.2461 19.2764 17.8017 19.2764C18.0898 19.2764 18.2957 19.1736 18.4191 18.9884V19.2353H18.8513V18.2474ZM17.2666 18.2474C17.2666 17.8976 17.493 17.6095 17.8634 17.6095C18.2133 17.6095 18.4603 17.877 18.4603 18.2474C18.4603 18.5973 18.2133 18.8854 17.8634 18.8854C17.493 18.8648 17.2666 18.5973 17.2666 18.2474ZM12.101 17.2184C11.5247 17.2184 11.113 17.63 11.113 18.2474C11.113 18.8649 11.5246 19.2764 12.1215 19.2764C12.4096 19.2764 12.6978 19.1941 12.9242 19.009L12.7183 18.7003C12.5537 18.8237 12.3479 18.906 12.1421 18.906C11.8746 18.906 11.607 18.7826 11.5452 18.4326H13.0065V18.2681C13.0271 17.63 12.6567 17.2184 12.101 17.2184ZM12.1009 17.5889C12.3683 17.5889 12.5537 17.7536 12.5947 18.0623H11.5657C11.6069 17.7947 11.7921 17.5889 12.1009 17.5889ZM22.8232 18.2474V16.4775H22.3911V17.5065C22.247 17.3214 22.0412 17.2184 21.7736 17.2184C21.218 17.2184 20.7858 17.6506 20.7858 18.2474C20.7858 18.8443 21.218 19.2764 21.7736 19.2764C22.0618 19.2764 22.2676 19.1736 22.3911 18.9884V19.2353H22.8232V18.2474ZM21.2386 18.2474C21.2386 17.8976 21.4649 17.6095 21.8354 17.6095C22.1853 17.6095 22.4322 17.877 22.4322 18.2474C22.4322 18.5973 22.1853 18.8854 21.8354 18.8854C21.4649 18.8648 21.2386 18.5973 21.2386 18.2474ZM6.79105 18.2474V17.2596H6.35887V17.5065C6.21477 17.3214 6.00899 17.2184 5.74143 17.2184C5.18577 17.2184 4.75359 17.6506 4.75359 18.2474C4.75359 18.8443 5.18577 19.2764 5.74143 19.2764C6.02962 19.2764 6.2354 19.1736 6.35887 18.9884V19.2353H6.79105V18.2474ZM5.18577 18.2474C5.18577 17.8976 5.41218 17.6095 5.78259 17.6095C6.13246 17.6095 6.37949 17.877 6.37949 18.2474C6.37949 18.5973 6.13246 18.8854 5.78259 18.8854C5.41218 18.8648 5.18577 18.5973 5.18577 18.2474Z" fill="black"/>
<path d="M8.74707 2.25684H15.2299V13.9054H8.74707V2.25684Z" fill="#FF5F00"/>
<path d="M9.15834 8.08084C9.15834 5.71412 10.2697 3.61488 11.9778 2.25653C10.7225 1.26869 9.13781 0.671875 7.40906 0.671875C3.31341 0.671875 0 3.98528 0 8.08084C0 12.1764 3.31341 15.4898 7.40897 15.4898C9.13772 15.4898 10.7224 14.893 11.9778 13.9051C10.2697 12.5673 9.15834 10.4476 9.15834 8.08084Z" fill="#EB001B"/>
<path d="M23.9758 8.08084C23.9758 12.1763 20.6624 15.4898 16.5669 15.4898C14.8381 15.4898 13.2535 14.893 11.998 13.9051C13.7268 12.5468 14.8176 10.4476 14.8176 8.08084C14.8176 5.71412 13.7062 3.61488 11.998 2.25653C13.2534 1.26869 14.8381 0.671875 16.5669 0.671875C20.6624 0.671875 23.9758 4.00591 23.9758 8.08084Z" fill="#F79E1B"/>
</svg>
