<svg width="16" height="16" viewBox="0 0 16 16" fill="none" xmlns="http://www.w3.org/2000/svg">
<g clip-path="url(#clip0_501_5470)">
<path fill-rule="evenodd" clip-rule="evenodd" d="M3.33312 6.00065C3.33312 4.76297 3.82479 3.57599 4.69996 2.70082C5.57513 1.82565 6.76211 1.33398 7.99979 1.33398C9.23747 1.33398 10.4245 1.82565 11.2996 2.70082C12.1748 3.57599 12.6665 4.76297 12.6665 6.00065V8.50998L13.8811 10.9393C13.937 11.0511 13.9634 11.1754 13.9578 11.3003C13.9522 11.4252 13.9148 11.5465 13.849 11.6529C13.7833 11.7592 13.6915 11.847 13.5823 11.9079C13.4731 11.9687 13.3501 12.0007 13.2251 12.0007H10.5825C10.4342 12.5728 10.1001 13.0795 9.63263 13.4413C9.16519 13.803 8.59086 13.9993 7.99979 13.9993C7.40873 13.9993 6.83439 13.803 6.36695 13.4413C5.8995 13.0795 5.56542 12.5728 5.41712 12.0007H2.77446C2.64944 12.0007 2.5265 11.9687 2.4173 11.9079C2.30811 11.847 2.21628 11.7592 2.15055 11.6529C2.08483 11.5465 2.04737 11.4252 2.04176 11.3003C2.03614 11.1754 2.06254 11.0511 2.11846 10.9393L3.33312 8.50998V6.00065ZM6.84512 12.0007C6.96215 12.2033 7.13047 12.3716 7.33315 12.4886C7.53584 12.6057 7.76575 12.6673 7.99979 12.6673C8.23383 12.6673 8.46374 12.6057 8.66643 12.4886C8.86911 12.3716 9.03743 12.2033 9.15446 12.0007H6.84512ZM7.99979 2.66732C7.11574 2.66732 6.26789 3.01851 5.64277 3.64363C5.01765 4.26875 4.66646 5.1166 4.66646 6.00065V8.50998C4.66644 8.71687 4.61828 8.92092 4.52579 9.10598L3.74579 10.6673H12.2545L11.4745 9.10598C11.3817 8.92098 11.3333 8.71693 11.3331 8.50998V6.00065C11.3331 5.1166 10.9819 4.26875 10.3568 3.64363C9.73169 3.01851 8.88385 2.66732 7.99979 2.66732Z" fill="black"/>
</g>
<defs>
<clipPath id="clip0_501_5470">
<rect width="16" height="16" fill="white"/>
</clipPath>
</defs>
</svg>
