<svg width="17" height="17" viewBox="0 0 17 17" fill="none" xmlns="http://www.w3.org/2000/svg">
<path d="M4.03125 3.20898C3.36821 3.20898 2.73232 3.47238 2.26348 3.94122C1.79464 4.41006 1.53125 5.04594 1.53125 5.70898V6.20898H15.5312V5.70898C15.5312 5.04594 15.2679 4.41006 14.799 3.94122C14.3302 3.47238 13.6943 3.20898 13.0312 3.20898H4.03125ZM15.5312 7.20898H1.53125V10.709C1.53125 11.372 1.79464 12.0079 2.26348 12.4768C2.73232 12.9456 3.36821 13.209 4.03125 13.209H13.0312C13.6943 13.209 14.3302 12.9456 14.799 12.4768C15.2679 12.0079 15.5312 11.372 15.5312 10.709V7.20898ZM11.0312 10.209H13.0312C13.1639 10.209 13.291 10.2617 13.3848 10.3554C13.4786 10.4492 13.5312 10.5764 13.5312 10.709C13.5312 10.8416 13.4786 10.9688 13.3848 11.0625C13.291 11.1563 13.1639 11.209 13.0312 11.209H11.0312C10.8986 11.209 10.7715 11.1563 10.6777 11.0625C10.5839 10.9688 10.5312 10.8416 10.5312 10.709C10.5312 10.5764 10.5839 10.4492 10.6777 10.3554C10.7715 10.2617 10.8986 10.209 11.0312 10.209Z" fill="black"/>
</svg>
