<svg width="17" height="17" viewBox="0 0 17 17" fill="none" xmlns="http://www.w3.org/2000/svg">
<path d="M5.98958 4.99674C5.98958 4.42211 6.21786 3.87101 6.62419 3.46468C7.03051 3.05835 7.58161 2.83008 8.15625 2.83008C8.73089 2.83008 9.28199 3.05835 9.68831 3.46468C10.0946 3.87101 10.3229 4.42211 10.3229 4.99674C10.3229 5.57138 10.0946 6.12248 9.68831 6.52881C9.28199 6.93514 8.73089 7.16341 8.15625 7.16341C7.58161 7.16341 7.03051 6.93514 6.62419 6.52881C6.21786 6.12248 5.98958 5.57138 5.98958 4.99674ZM3.48611 10.3266C4.01747 9.79526 4.73814 9.49675 5.48958 9.49675H10.8229C11.5744 9.49675 12.295 9.79526 12.8264 10.3266C13.3577 10.858 13.6562 11.5786 13.6562 12.3301C13.6562 12.7279 13.4982 13.1094 13.2169 13.3907C12.9356 13.672 12.5541 13.8301 12.1562 13.8301H4.15625C3.75843 13.8301 3.37689 13.672 3.09559 13.3907C2.81429 13.1094 2.65625 12.7279 2.65625 12.3301C2.65625 11.5786 2.95476 10.858 3.48611 10.3266Z" stroke="black"/>
</svg>
