<svg width="13" height="12" viewBox="0 0 13 12" fill="none" xmlns="http://www.w3.org/2000/svg">
<path d="M2.64844 6.47238C2.90844 6.46038 3.12844 6.36038 3.30844 6.17238C3.48844 5.98438 3.58044 5.76038 3.58044 5.50038C3.58044 5.76038 3.66844 5.98438 3.84844 6.17238C4.02844 6.36038 4.24844 6.46038 4.50844 6.47238C4.24844 6.48438 4.02844 6.58438 3.84844 6.77238C3.76141 6.86101 3.6929 6.96607 3.64689 7.08144C3.60087 7.19682 3.57829 7.32019 3.58044 7.44438C3.58044 7.18438 3.49244 6.96038 3.30844 6.77238C3.12844 6.58438 2.90844 6.48438 2.64844 6.47238ZM3.58044 3.59238C4.08444 3.56838 4.51244 3.37238 4.86444 3.00438C5.21644 2.63638 5.39244 2.20038 5.39244 1.69238C5.39244 2.20038 5.56844 2.63638 5.92044 3.00438C6.27244 3.37238 6.70044 3.56438 7.20844 3.59238C6.87644 3.60838 6.57244 3.70038 6.29244 3.87638C6.01644 4.04838 5.79644 4.28038 5.63244 4.56838C5.47244 4.85638 5.39244 5.16438 5.39244 5.50038C5.39244 4.99238 5.21644 4.55238 4.86444 4.18438C4.51244 3.81238 4.08444 3.61638 3.58044 3.59238ZM4.90844 7.90038C5.28844 7.88438 5.61244 7.73638 5.87644 7.46038C6.14044 7.18438 6.27244 6.85638 6.27244 6.47238C6.27244 6.85638 6.40444 7.18438 6.66844 7.46038C6.93244 7.73638 7.25244 7.88438 7.63244 7.90038C7.25244 7.91638 6.93244 8.06438 6.66844 8.34038C6.40444 8.61638 6.27244 8.94438 6.27244 9.32838C6.27244 8.94438 6.14044 8.61638 5.87644 8.34038C5.62411 8.07223 5.27638 7.91417 4.90844 7.90038ZM7.63244 6.00438C8.01244 5.98838 8.33244 5.84038 8.59644 5.56438C8.86044 5.28838 8.98844 4.96038 8.98844 4.57238C8.98844 4.95638 9.12044 5.28438 9.38444 5.56038C9.64844 5.83638 9.97244 5.98438 10.3524 6.00038C9.97244 6.01638 9.64844 6.16438 9.38444 6.44038C9.12044 6.71638 8.98844 7.04438 8.98844 7.42838C8.98844 7.04438 8.85644 6.71638 8.59644 6.44038C8.33244 6.16838 8.01244 6.02038 7.63244 6.00438Z" fill="#FEEBF7"/>
</svg>
