<svg width="16" height="16" viewBox="0 0 16 16" fill="none" xmlns="http://www.w3.org/2000/svg">
<path d="M6.10768 7.24683C6.04102 7.24016 5.96102 7.24016 5.88768 7.24683C4.30102 7.1935 3.04102 5.8935 3.04102 4.2935C3.04102 2.66016 4.36102 1.3335 6.00102 1.3335C7.63435 1.3335 8.96102 2.66016 8.96102 4.2935C8.95435 5.8935 7.69435 7.1935 6.10768 7.24683Z" stroke="black" stroke-width="1.2" stroke-linecap="round" stroke-linejoin="round"/>
<path d="M10.9402 2.6665C12.2335 2.6665 13.2735 3.71317 13.2735 4.99984C13.2735 6.25984 12.2735 7.2865 11.0268 7.33317C10.9735 7.3265 10.9135 7.3265 10.8535 7.33317" stroke="black" stroke-width="1.2" stroke-linecap="round" stroke-linejoin="round"/>
<path d="M2.77445 9.7065C1.16112 10.7865 1.16112 12.5465 2.77445 13.6198C4.60779 14.8465 7.61445 14.8465 9.44779 13.6198C11.0611 12.5398 11.0611 10.7798 9.44779 9.7065C7.62112 8.4865 4.61445 8.4865 2.77445 9.7065Z" stroke="black" stroke-width="1.2" stroke-linecap="round" stroke-linejoin="round"/>
<path d="M12.2266 13.3335C12.7066 13.2335 13.1599 13.0402 13.5332 12.7535C14.5732 11.9735 14.5732 10.6868 13.5332 9.90683C13.1666 9.62683 12.7199 9.44016 12.2466 9.3335" stroke="black" stroke-width="1.2" stroke-linecap="round" stroke-linejoin="round"/>
</svg>
