<svg width="20" height="20" viewBox="0 0 20 20" fill="none" xmlns="http://www.w3.org/2000/svg">
<path d="M12.3337 6.96976L13.3337 7.87885L7.66699 13.0304L6.66699 12.1213L12.3337 6.96976ZM3.33366 3.93945H16.667C17.592 3.93945 18.3337 4.6137 18.3337 5.4546V8.48491C17.8916 8.48491 17.4677 8.64454 17.1551 8.92869C16.8426 9.21283 16.667 9.59822 16.667 10.0001C16.667 10.4019 16.8426 10.7873 17.1551 11.0714C17.4677 11.3556 17.8916 11.5152 18.3337 11.5152V14.5455C18.3337 15.3864 17.592 16.0607 16.667 16.0607H3.33366C2.89163 16.0607 2.46771 15.901 2.15515 15.6169C1.84259 15.3327 1.66699 14.9474 1.66699 14.5455V11.5152C2.59199 11.5152 3.33366 10.841 3.33366 10.0001C3.33366 9.59822 3.15806 9.21283 2.8455 8.92869C2.53294 8.64454 2.10902 8.48491 1.66699 8.48491V5.4546C1.66699 5.05276 1.84259 4.66738 2.15515 4.38323C2.46771 4.09908 2.89163 3.93945 3.33366 3.93945ZM3.33366 5.4546V7.37885C3.84006 7.6443 4.26062 8.02632 4.55304 8.48646C4.84545 8.94661 4.99941 9.46865 4.99941 10.0001C4.99941 10.5315 4.84545 11.0535 4.55304 11.5137C4.26062 11.9738 3.84006 12.3558 3.33366 12.6213V14.5455H16.667V12.6213C16.1606 12.3558 15.74 11.9738 15.4476 11.5137C15.1552 11.0535 15.0012 10.5315 15.0012 10.0001C15.0012 9.46865 15.1552 8.94661 15.4476 8.48646C15.74 8.02632 16.1606 7.6443 16.667 7.37885V5.4546H3.33366ZM7.91699 6.96976C8.60866 6.96976 9.16699 7.47733 9.16699 8.10612C9.16699 8.73491 8.60866 9.24248 7.91699 9.24248C7.22533 9.24248 6.66699 8.73491 6.66699 8.10612C6.66699 7.47733 7.22533 6.96976 7.91699 6.96976ZM12.0837 10.7576C12.7753 10.7576 13.3337 11.2652 13.3337 11.894C13.3337 12.5228 12.7753 13.0304 12.0837 13.0304C11.392 13.0304 10.8337 12.5228 10.8337 11.894C10.8337 11.2652 11.392 10.7576 12.0837 10.7576Z" fill="black" fill-opacity="0.4"/>
</svg>
